<?xml version="1.0" encoding="UTF-8"?>
<!DOCTYPE svg PUBLIC "-//W3C//DTD SVG 1.1//EN" "http://www.w3.org/Graphics/SVG/1.1/DTD/svg11.dtd">
<!-- Creator: CorelDRAW 2017 -->
<svg xmlns="http://www.w3.org/2000/svg" xml:space="preserve" width="225px" height="43px" version="1.1" shape-rendering="geometricPrecision" text-rendering="geometricPrecision" image-rendering="optimizeQuality" fill-rule="evenodd" clip-rule="evenodd"
viewBox="0 0 225 43"
 xmlns:xlink="http://www.w3.org/1999/xlink">
 <g id="Layer_x0020_1">
  <metadata id="CorelCorpID_0Corel-Layer"/>
  <path fill="#000033" fill-rule="nonzero" d="M138.8 30.11c-2.53,-0.08 -4.99,-0.13 -7.37,-0.15l0 12.61 -6.04 0 0 -12.61c-2.4,0.02 -4.85,0.07 -7.35,0.15l0 -5.08 20.76 0 0 5.08z"/>
  <path fill="#000033" fill-rule="nonzero" d="M146.61 38.15c6.12,-0.03 10.56,-0.12 13.31,-0.27 -0.11,0.97 -0.24,3.63 -0.24,4.69l-18.77 0c0.12,-3.12 0.19,-6.05 0.19,-8.77 0,-2.72 -0.07,-5.64 -0.19,-8.77l18.77 0 0 4.38 -13.07 0 0 2.31c0.77,0.02 1.91,0.03 3.43,0.03 2.56,0 5.21,-0.05 7.95,-0.15l0 4.16c-2.74,-0.1 -5.39,-0.15 -7.95,-0.15 -1.52,0 -2.66,0.01 -3.43,0.03l0 2.51z"/>
  <path fill="#000033" fill-rule="nonzero" d="M175.05 35.35l-2.46 -6.65 -2.49 6.65 4.95 0zm2.61 7.22c-0.3,-0.92 -0.71,-2.07 -1.23,-3.45l-7.71 0 -1.2 3.45 -6.07 0 6.77 -17.54 8.89 0 6.81 17.54 -6.26 0z"/>
  <path fill="#000033" fill-rule="nonzero" d="M203.51 30.11c-2.53,-0.08 -4.98,-0.13 -7.37,-0.15l0 12.61 -6.04 0 0 -12.61c-2.4,0.02 -4.84,0.07 -7.34,0.15l0 -5.08 20.75 0 0 5.08z"/>
  <path fill="#000033" fill-rule="nonzero" d="M214.9 33.66c1.34,0 2.34,-0.05 3.01,-0.16 0.67,-0.1 1.13,-0.29 1.4,-0.57 0.27,-0.27 0.4,-0.67 0.4,-1.21 0,-0.53 -0.13,-0.93 -0.38,-1.19 -0.25,-0.27 -0.71,-0.45 -1.37,-0.55 -0.67,-0.09 -1.69,-0.14 -3.06,-0.14l-3.33 0 0 3.82 3.33 0zm1.69 -8.6c3.21,0 5.44,0.56 6.69,1.7 1.26,1.13 1.89,2.73 1.89,4.79 0,1.42 -0.25,2.63 -0.75,3.62 -0.5,0.99 -1.38,1.76 -2.63,2.32 -1.26,0.55 -2.99,0.83 -5.2,0.83l-5.02 0 0 4.25 -5.95 0c0.13,-3.12 0.2,-6.05 0.2,-8.77 0,-2.72 -0.07,-5.64 -0.2,-8.77l10.97 0.03z"/>
  <path fill="#000033" fill-rule="nonzero" d="M135.12 2.79l-0.61 -1.43 -0.62 1.43 1.23 0zm0.2 0.47l-1.63 0 -0.32 0.76 -0.63 0 1.47 -3.27 0.6 0 1.48 3.27 -0.64 0 -0.33 -0.76z"/>
  <path fill="#000033" fill-rule="nonzero" d="M137.41 2.44c0,0.28 0.18,0.42 0.54,0.42l0.62 0 0 -0.85 -0.6 0c-0.37,0 -0.56,0.15 -0.56,0.43zm1.69 -0.92l0 2.5 -0.53 0 0 -0.75 -0.65 0 -0.51 0.75 -0.63 0 0.59 -0.83c-0.18,-0.06 -0.32,-0.16 -0.42,-0.29 -0.09,-0.13 -0.14,-0.29 -0.14,-0.48 0,-0.28 0.1,-0.51 0.31,-0.66 0.2,-0.16 0.48,-0.24 0.83,-0.24l1.15 0z"/>
  <path fill="#000033" fill-rule="nonzero" d="M141.91 2.93c0.08,0.1 0.12,0.22 0.12,0.36 0,0.15 -0.05,0.28 -0.15,0.4 -0.1,0.12 -0.25,0.21 -0.43,0.27 -0.18,0.07 -0.38,0.1 -0.61,0.1 -0.2,0 -0.38,-0.02 -0.57,-0.07 -0.18,-0.04 -0.35,-0.11 -0.5,-0.19l0.17 -0.44c0.12,0.07 0.26,0.13 0.41,0.16 0.15,0.04 0.31,0.06 0.46,0.06 0.2,0 0.35,-0.03 0.46,-0.09 0.11,-0.06 0.17,-0.15 0.17,-0.25 0,-0.1 -0.05,-0.17 -0.13,-0.22 -0.09,-0.06 -0.21,-0.08 -0.37,-0.08l-0.48 0 0 -0.4 0.44 0c0.15,0 0.26,-0.02 0.34,-0.07 0.08,-0.05 0.13,-0.12 0.13,-0.21 0,-0.09 -0.05,-0.16 -0.15,-0.22 -0.1,-0.05 -0.24,-0.08 -0.41,-0.08 -0.25,0 -0.52,0.06 -0.79,0.19l-0.15 -0.43c0.32,-0.16 0.65,-0.23 0.99,-0.23 0.21,0 0.4,0.03 0.57,0.08 0.16,0.06 0.3,0.14 0.39,0.25 0.1,0.1 0.14,0.22 0.14,0.35 0,0.13 -0.03,0.23 -0.11,0.33 -0.07,0.09 -0.18,0.17 -0.31,0.22 0.16,0.04 0.28,0.11 0.37,0.21z"/>
  <path fill="#000033" fill-rule="nonzero" d="M146.4 1.26l-1.62 0 0 2.76 -0.59 0 0 -3.27 2.22 0 -0.01 0.51z"/>
  <path fill="#000033" fill-rule="nonzero" d="M149.24 1.52l0.59 0 0 2.5 -0.59 0 0 -2.5zm-1.04 1.97c0.09,-0.08 0.13,-0.19 0.13,-0.33 0,-0.14 -0.04,-0.24 -0.13,-0.31 -0.09,-0.06 -0.22,-0.1 -0.4,-0.1l-0.49 -0.01 0 0.85 0.49 0c0.17,0.01 0.31,-0.03 0.4,-0.1zm0.47 -0.93c0.17,0.14 0.25,0.35 0.25,0.61 0,0.27 -0.09,0.48 -0.28,0.63 -0.18,0.15 -0.45,0.23 -0.79,0.22l-1.13 0 0 -2.5 0.59 0 0 0.82 0.63 0.01c0.32,0 0.56,0.07 0.73,0.21z"/>
  <path fill="#000033" fill-rule="nonzero" d="M151.39 1.05c-0.13,-0.11 -0.2,-0.28 -0.2,-0.51l0.38 0c0.01,0.12 0.04,0.2 0.11,0.27 0.07,0.07 0.16,0.1 0.28,0.1 0.12,0 0.21,-0.03 0.28,-0.1 0.08,-0.07 0.11,-0.15 0.11,-0.27l0.4 0c0,0.23 -0.07,0.4 -0.2,0.51 -0.14,0.12 -0.33,0.18 -0.58,0.18 -0.26,0 -0.45,-0.06 -0.58,-0.18zm-0.63 0.47l0.58 0 0 1.65 1.38 -1.65 0.53 0 0 2.5 -0.58 0 0 -1.64 -1.38 1.64 -0.53 0 0 -2.5z"/>
  <path fill="#000033" fill-rule="nonzero" d="M156.48 1.52l0 2.5 -0.59 0 0 -2 -0.93 0 -0.02 0.49c-0.02,0.34 -0.05,0.61 -0.1,0.83 -0.04,0.23 -0.12,0.4 -0.22,0.53 -0.11,0.13 -0.26,0.2 -0.45,0.2 -0.08,0 -0.19,-0.02 -0.32,-0.06l0.03 -0.49c0.04,0.01 0.08,0.02 0.11,0.02 0.12,0 0.21,-0.05 0.27,-0.14 0.06,-0.1 0.1,-0.21 0.11,-0.35 0.02,-0.13 0.03,-0.32 0.05,-0.56l0.04 -0.97 2.02 0z"/>
  <path fill="#000033" fill-rule="nonzero" d="M158.99 3.41c0.13,-0.11 0.21,-0.25 0.23,-0.44l-1.41 0c0.02,0.18 0.1,0.33 0.23,0.44 0.12,0.11 0.28,0.17 0.47,0.17 0.19,0 0.35,-0.06 0.48,-0.17zm0.16 -1.75c0.21,0.1 0.37,0.26 0.48,0.45 0.12,0.2 0.17,0.42 0.17,0.66 0,0.24 -0.05,0.46 -0.16,0.66 -0.11,0.19 -0.27,0.34 -0.46,0.45 -0.2,0.11 -0.42,0.17 -0.67,0.17 -0.24,0 -0.46,-0.06 -0.65,-0.16 -0.19,-0.11 -0.34,-0.26 -0.45,-0.46 -0.1,-0.19 -0.16,-0.42 -0.16,-0.67 0,-0.04 0,-0.1 0.01,-0.17l1.96 0c-0.04,-0.19 -0.13,-0.33 -0.27,-0.44 -0.14,-0.11 -0.33,-0.16 -0.54,-0.16 -0.27,0 -0.5,0.09 -0.68,0.27l-0.31 -0.36c0.11,-0.14 0.25,-0.24 0.43,-0.31 0.17,-0.06 0.36,-0.1 0.57,-0.1 0.28,0 0.52,0.06 0.73,0.17z"/>
  <path fill="#000033" fill-rule="nonzero" d="M164.32 3.53l0 1.01 -0.53 0 0 -0.52 -0.32 0 0 -0.49 0.85 0zm-1.45 -0.51l-0.42 0 0 1 -0.58 0 0 -1 -0.42 0 -0.61 1 -0.69 0 0.82 -1.29 -0.76 -1.21 0.62 0 0.61 1.01 0.43 0 0 -1.01 0.58 0 0 1.01 0.42 0 0.61 -1.01 0.63 0 -0.76 1.21 0.82 1.29 -0.7 0 -0.6 -1z"/>
  <path fill="#000033" fill-rule="nonzero" d="M165.54 2.13c-0.13,0.11 -0.21,0.26 -0.24,0.44l1.42 0c-0.03,-0.18 -0.11,-0.33 -0.23,-0.44 -0.13,-0.11 -0.29,-0.17 -0.48,-0.17 -0.19,0 -0.34,0.06 -0.47,0.17zm1.72 0.83l-1.95 0c0.03,0.18 0.12,0.33 0.26,0.44 0.15,0.1 0.33,0.16 0.54,0.16 0.28,0 0.5,-0.09 0.68,-0.27l0.31 0.36c-0.11,0.13 -0.25,0.23 -0.42,0.3 -0.17,0.07 -0.37,0.1 -0.58,0.1 -0.28,0 -0.52,-0.05 -0.73,-0.16 -0.2,-0.11 -0.36,-0.26 -0.48,-0.46 -0.11,-0.19 -0.17,-0.41 -0.17,-0.66 0,-0.24 0.06,-0.46 0.17,-0.65 0.11,-0.2 0.26,-0.35 0.46,-0.46 0.19,-0.11 0.41,-0.16 0.66,-0.16 0.24,0 0.46,0.05 0.65,0.16 0.19,0.1 0.34,0.26 0.45,0.45 0.11,0.2 0.16,0.42 0.16,0.68 0,0.04 0,0.09 -0.01,0.17z"/>
  <path fill="#000033" fill-rule="nonzero" d="M169.75 3.28c0,-0.11 -0.03,-0.19 -0.11,-0.24 -0.07,-0.06 -0.19,-0.09 -0.35,-0.09l-0.69 0 0 0.64 0.67 0c0.32,0 0.48,-0.1 0.48,-0.31zm-1.15 -0.71l0.62 0c0.3,0 0.45,-0.11 0.45,-0.32 0,-0.2 -0.15,-0.3 -0.45,-0.3l-0.62 0 0 0.62zm1.72 0.75c0,0.22 -0.09,0.4 -0.25,0.52 -0.17,0.12 -0.42,0.18 -0.75,0.18l-1.27 0 0 -2.5 1.22 0c0.3,0 0.54,0.06 0.71,0.17 0.17,0.11 0.26,0.27 0.26,0.48 0,0.13 -0.03,0.24 -0.1,0.33 -0.07,0.09 -0.16,0.17 -0.28,0.22 0.3,0.09 0.46,0.29 0.46,0.6z"/>
  <path fill="#000033" fill-rule="nonzero" d="M172.42 1.52l0.58 0 0 1.65 1.38 -1.65 0.53 0 0 2.5 -0.58 0 0 -1.64 -1.38 1.64 -0.53 0 0 -2.5z"/>
  <path fill="#000033" fill-rule="nonzero" d="M176.31 3.89c-0.21,-0.11 -0.37,-0.26 -0.48,-0.46 -0.12,-0.19 -0.17,-0.41 -0.17,-0.66 0,-0.24 0.05,-0.46 0.17,-0.66 0.11,-0.19 0.27,-0.34 0.48,-0.45 0.2,-0.11 0.43,-0.16 0.7,-0.16 0.24,0 0.46,0.05 0.64,0.15 0.19,0.1 0.33,0.24 0.42,0.43l-0.45 0.26c-0.07,-0.12 -0.16,-0.2 -0.27,-0.26 -0.1,-0.06 -0.22,-0.09 -0.35,-0.09 -0.22,0 -0.4,0.07 -0.54,0.21 -0.14,0.15 -0.22,0.33 -0.22,0.57 0,0.24 0.08,0.43 0.22,0.57 0.14,0.14 0.32,0.21 0.54,0.21 0.13,0 0.25,-0.03 0.35,-0.08 0.11,-0.06 0.2,-0.15 0.27,-0.26l0.45 0.26c-0.1,0.18 -0.24,0.33 -0.42,0.43 -0.19,0.1 -0.4,0.15 -0.64,0.15 -0.26,0 -0.49,-0.05 -0.7,-0.16z"/>
  <path fill="#000033" fill-rule="nonzero" d="M179.35 2.13c-0.13,0.11 -0.2,0.26 -0.23,0.44l1.41 0c-0.02,-0.18 -0.1,-0.33 -0.23,-0.44 -0.12,-0.11 -0.28,-0.17 -0.47,-0.17 -0.19,0 -0.35,0.06 -0.48,0.17zm1.73 0.83l-1.96 0c0.04,0.18 0.13,0.33 0.27,0.44 0.15,0.1 0.33,0.16 0.54,0.16 0.28,0 0.5,-0.09 0.68,-0.27l0.31 0.36c-0.11,0.13 -0.25,0.23 -0.42,0.3 -0.18,0.07 -0.37,0.1 -0.58,0.1 -0.28,0 -0.52,-0.05 -0.73,-0.16 -0.21,-0.11 -0.37,-0.26 -0.48,-0.46 -0.11,-0.19 -0.17,-0.41 -0.17,-0.66 0,-0.24 0.05,-0.46 0.17,-0.65 0.1,-0.2 0.26,-0.35 0.45,-0.46 0.2,-0.11 0.42,-0.16 0.67,-0.16 0.24,0 0.46,0.05 0.65,0.16 0.19,0.1 0.34,0.26 0.45,0.45 0.11,0.2 0.16,0.42 0.16,0.68 0,0.04 0,0.09 -0.01,0.17z"/>
  <path fill="#000033" fill-rule="nonzero" d="M184.32 4.02l0 -1.65 -0.84 1.39 -0.25 0 -0.83 -1.4 0 1.66 -0.53 0 0 -2.5 0.61 0 0.89 1.57 0.93 -1.57 0.54 0 0.01 2.5 -0.53 0z"/>
  <path fill="#000033" fill-rule="nonzero" d="M186.41 2.13c-0.13,0.11 -0.21,0.26 -0.24,0.44l1.42 0c-0.03,-0.18 -0.1,-0.33 -0.23,-0.44 -0.13,-0.11 -0.29,-0.17 -0.48,-0.17 -0.18,0 -0.34,0.06 -0.47,0.17zm1.73 0.83l-1.96 0c0.03,0.18 0.12,0.33 0.27,0.44 0.14,0.1 0.32,0.16 0.54,0.16 0.27,0 0.5,-0.09 0.67,-0.27l0.32 0.36c-0.12,0.13 -0.26,0.23 -0.43,0.3 -0.17,0.07 -0.36,0.1 -0.58,0.1 -0.27,0 -0.51,-0.05 -0.72,-0.16 -0.21,-0.11 -0.37,-0.26 -0.49,-0.46 -0.11,-0.19 -0.17,-0.41 -0.17,-0.66 0,-0.24 0.06,-0.46 0.17,-0.65 0.11,-0.2 0.26,-0.35 0.46,-0.46 0.2,-0.11 0.42,-0.16 0.66,-0.16 0.25,0 0.46,0.05 0.66,0.16 0.19,0.1 0.34,0.26 0.44,0.45 0.11,0.2 0.16,0.42 0.16,0.68 0,0.04 0,0.09 0,0.17z"/>
  <path fill="#000033" fill-rule="nonzero" d="M188.92 1.52l0.59 0 0 1.02 1.25 0 0 -1.02 0.59 0 0 2.5 -0.59 0 0 -0.99 -1.25 0 0 0.99 -0.59 0 0 -2.5z"/>
  <path fill="#000033" fill-rule="nonzero" d="M192.98 3.12c-0.03,0.18 -0.09,0.32 -0.18,0.4l1.23 0 0 -1.5 -0.96 0 -0.02 0.4c-0.01,0.29 -0.03,0.52 -0.07,0.7zm2 0.4l0 1.05 -0.55 0 0 -0.55 -1.92 0 0 0.55 -0.54 0 0 -1.05 0.11 0c0.16,0 0.27,-0.1 0.33,-0.3 0.06,-0.2 0.09,-0.48 0.11,-0.84l0.04 -0.86 2.05 0 0 2 0.37 0z"/>
  <path fill="#000033" fill-rule="nonzero" d="M197.22 3.41c0.13,-0.11 0.21,-0.25 0.24,-0.44l-1.42 0c0.03,0.18 0.1,0.33 0.23,0.44 0.13,0.11 0.29,0.17 0.48,0.17 0.18,0 0.34,-0.06 0.47,-0.17zm0.16 -1.75c0.21,0.1 0.37,0.26 0.49,0.45 0.11,0.2 0.17,0.42 0.17,0.66 0,0.24 -0.06,0.46 -0.17,0.66 -0.11,0.19 -0.26,0.34 -0.46,0.45 -0.2,0.11 -0.42,0.17 -0.66,0.17 -0.25,0 -0.46,-0.06 -0.65,-0.16 -0.2,-0.11 -0.35,-0.26 -0.45,-0.46 -0.11,-0.19 -0.16,-0.42 -0.16,-0.67 0,-0.04 0,-0.1 0.01,-0.17l1.95 0c-0.03,-0.19 -0.12,-0.33 -0.27,-0.44 -0.14,-0.11 -0.32,-0.16 -0.54,-0.16 -0.27,0 -0.5,0.09 -0.67,0.27l-0.32 -0.36c0.12,-0.14 0.26,-0.24 0.43,-0.31 0.17,-0.06 0.36,-0.1 0.58,-0.1 0.27,0 0.51,0.06 0.72,0.17z"/>
  <path fill="#000033" fill-rule="nonzero" d="M200.7 2.02l-1.33 0 0 2 -0.59 0 0 -2.5 1.92 0 0 0.5z"/>
  <path fill="#000033" fill-rule="nonzero" d="M201.92 2.13c-0.13,0.11 -0.2,0.26 -0.23,0.44l1.41 0c-0.02,-0.18 -0.1,-0.33 -0.23,-0.44 -0.12,-0.11 -0.28,-0.17 -0.47,-0.17 -0.19,0 -0.35,0.06 -0.48,0.17zm1.73 0.83l-1.96 0c0.04,0.18 0.13,0.33 0.27,0.44 0.15,0.1 0.33,0.16 0.54,0.16 0.27,0 0.5,-0.09 0.68,-0.27l0.31 0.36c-0.11,0.13 -0.25,0.23 -0.42,0.3 -0.18,0.07 -0.37,0.1 -0.58,0.1 -0.28,0 -0.52,-0.05 -0.73,-0.16 -0.21,-0.11 -0.37,-0.26 -0.48,-0.46 -0.11,-0.19 -0.17,-0.41 -0.17,-0.66 0,-0.24 0.05,-0.46 0.16,-0.65 0.11,-0.2 0.27,-0.35 0.46,-0.46 0.2,-0.11 0.42,-0.16 0.67,-0.16 0.24,0 0.46,0.05 0.65,0.16 0.19,0.1 0.34,0.26 0.45,0.45 0.11,0.2 0.16,0.42 0.16,0.68 0,0.04 0,0.09 -0.01,0.17z"/>
  <path fill="#000033" fill-rule="nonzero" d="M135.71 5.73l0 3.27 -0.61 0 0 -1.23c-0.3,0.11 -0.6,0.17 -0.87,0.17 -0.42,0 -0.74,-0.1 -0.97,-0.3 -0.23,-0.2 -0.34,-0.49 -0.34,-0.87l0 -1.04 0.61 0 0 0.98c0,0.23 0.06,0.4 0.2,0.53 0.13,0.12 0.32,0.18 0.57,0.18 0.28,0 0.55,-0.06 0.8,-0.18l0 -1.51 0.61 0z"/>
  <path fill="#000033" fill-rule="nonzero" d="M137.94 8.51c0.12,-0.07 0.2,-0.16 0.25,-0.29l0 -0.29 -0.61 0c-0.33,0 -0.5,0.11 -0.5,0.33 0,0.11 0.04,0.19 0.13,0.26 0.08,0.06 0.19,0.09 0.34,0.09 0.15,0 0.28,-0.04 0.39,-0.1zm0.54 -1.77c0.19,0.18 0.29,0.44 0.29,0.8l0 1.46 -0.55 0 0 -0.3c-0.07,0.11 -0.18,0.19 -0.31,0.25 -0.13,0.05 -0.29,0.08 -0.48,0.08 -0.18,0 -0.35,-0.03 -0.49,-0.09 -0.14,-0.07 -0.24,-0.15 -0.32,-0.27 -0.08,-0.11 -0.12,-0.24 -0.12,-0.38 0,-0.23 0.09,-0.41 0.25,-0.54 0.17,-0.14 0.43,-0.21 0.79,-0.21l0.65 0 0 -0.03c0,-0.18 -0.06,-0.31 -0.16,-0.41 -0.11,-0.09 -0.26,-0.13 -0.47,-0.13 -0.14,0 -0.27,0.02 -0.41,0.06 -0.13,0.04 -0.25,0.11 -0.34,0.18l-0.23 -0.42c0.13,-0.1 0.29,-0.18 0.47,-0.23 0.18,-0.05 0.38,-0.08 0.58,-0.08 0.37,0 0.65,0.09 0.85,0.26z"/>
  <path fill="#000033" fill-rule="nonzero" d="M141.96 6.51l0 2.49 -0.58 0 0 -2 -0.94 0 -0.02 0.5c-0.01,0.33 -0.05,0.6 -0.09,0.83 -0.05,0.22 -0.12,0.4 -0.23,0.52 -0.11,0.13 -0.25,0.2 -0.44,0.2 -0.09,0 -0.2,-0.02 -0.32,-0.05l0.02 -0.49c0.05,0.01 0.09,0.01 0.12,0.01 0.12,0 0.2,-0.05 0.26,-0.14 0.06,-0.1 0.1,-0.21 0.12,-0.34 0.01,-0.13 0.03,-0.32 0.04,-0.57l0.04 -0.96 2.02 0z"/>
  <path fill="#000033" fill-rule="nonzero" d="M145.19 6.51l0 2.49 -0.59 0 0 -2 -0.93 0 -0.02 0.5c-0.02,0.33 -0.05,0.6 -0.09,0.83 -0.05,0.22 -0.13,0.4 -0.23,0.52 -0.11,0.13 -0.26,0.2 -0.44,0.2 -0.09,0 -0.2,-0.02 -0.33,-0.05l0.03 -0.49c0.04,0.01 0.08,0.01 0.11,0.01 0.12,0 0.21,-0.05 0.27,-0.14 0.06,-0.1 0.1,-0.21 0.11,-0.34 0.02,-0.13 0.04,-0.32 0.05,-0.57l0.04 -0.96 2.02 0z"/>
  <path fill="#000033" fill-rule="nonzero" d="M148.64 6.51l0.58 0 0 2.49 -0.58 0 0 -2.49zm-1.05 1.96c0.09,-0.08 0.14,-0.19 0.14,-0.33 0,-0.14 -0.05,-0.24 -0.14,-0.31 -0.08,-0.06 -0.22,-0.1 -0.39,-0.1l-0.5 0 0 0.84 0.5 0.01c0.17,0 0.3,-0.04 0.39,-0.11zm0.47 -0.93c0.17,0.15 0.25,0.35 0.25,0.61 0,0.28 -0.09,0.49 -0.27,0.64 -0.19,0.15 -0.45,0.22 -0.79,0.22l-1.13 -0.01 0 -2.49 0.58 0 0 0.81 0.63 0.01c0.32,0 0.56,0.07 0.73,0.21z"/>
  <path fill="#000033" fill-rule="nonzero" d="M153.46 7l-0.88 0 0 2 -0.58 0 0 -2 -0.88 0 0 -0.49 2.34 0 0 0.49z"/>
  <path fill="#000033" fill-rule="nonzero" d="M155.36 8.51c0.11,-0.07 0.19,-0.16 0.24,-0.29l0 -0.29 -0.6 0c-0.34,0 -0.51,0.11 -0.51,0.33 0,0.11 0.04,0.19 0.13,0.26 0.08,0.06 0.2,0.09 0.35,0.09 0.15,0 0.28,-0.04 0.39,-0.1zm0.53 -1.77c0.2,0.18 0.29,0.44 0.29,0.8l0 1.46 -0.55 0 0 -0.3c-0.07,0.11 -0.17,0.19 -0.3,0.25 -0.14,0.05 -0.29,0.08 -0.48,0.08 -0.19,0 -0.35,-0.03 -0.49,-0.09 -0.14,-0.07 -0.25,-0.15 -0.33,-0.27 -0.07,-0.11 -0.11,-0.24 -0.11,-0.38 0,-0.23 0.08,-0.41 0.25,-0.54 0.17,-0.14 0.43,-0.21 0.79,-0.21l0.64 0 0 -0.03c0,-0.18 -0.05,-0.31 -0.16,-0.41 -0.1,-0.09 -0.25,-0.13 -0.46,-0.13 -0.14,0 -0.28,0.02 -0.41,0.06 -0.14,0.04 -0.25,0.11 -0.35,0.18l-0.23 -0.42c0.13,-0.1 0.29,-0.18 0.48,-0.23 0.18,-0.05 0.37,-0.08 0.58,-0.08 0.37,0 0.65,0.09 0.84,0.26z"/>
  <path fill="#000033" fill-rule="nonzero" d="M159.06 7l-0.87 0 0 2 -0.59 0 0 -2 -0.88 0 0 -0.49 2.34 0 0 0.49z"/>
  <path fill="#000033" fill-rule="nonzero" d="M160.96 8.51c0.12,-0.07 0.2,-0.16 0.24,-0.29l0 -0.29 -0.6 0c-0.34,0 -0.5,0.11 -0.5,0.33 0,0.11 0.04,0.19 0.12,0.26 0.09,0.06 0.2,0.09 0.35,0.09 0.15,0 0.28,-0.04 0.39,-0.1zm0.54 -1.77c0.19,0.18 0.29,0.44 0.29,0.8l0 1.46 -0.55 0 0 -0.3c-0.08,0.11 -0.18,0.19 -0.31,0.25 -0.13,0.05 -0.29,0.08 -0.48,0.08 -0.19,0 -0.35,-0.03 -0.49,-0.09 -0.14,-0.07 -0.25,-0.15 -0.32,-0.27 -0.08,-0.11 -0.12,-0.24 -0.12,-0.38 0,-0.23 0.09,-0.41 0.25,-0.54 0.17,-0.14 0.43,-0.21 0.79,-0.21l0.64 0 0 -0.03c0,-0.18 -0.05,-0.31 -0.15,-0.41 -0.11,-0.09 -0.26,-0.13 -0.47,-0.13 -0.14,0 -0.28,0.02 -0.41,0.06 -0.14,0.04 -0.25,0.11 -0.34,0.18l-0.23 -0.42c0.13,-0.1 0.29,-0.18 0.47,-0.23 0.18,-0.05 0.38,-0.08 0.58,-0.08 0.37,0 0.65,0.09 0.85,0.26z"/>
  <path fill="#000033" fill-rule="nonzero" d="M164.52 8.32c0.14,-0.14 0.21,-0.33 0.21,-0.57 0,-0.23 -0.07,-0.42 -0.21,-0.56 -0.13,-0.14 -0.31,-0.22 -0.53,-0.22 -0.14,0 -0.26,0.04 -0.37,0.1 -0.12,0.06 -0.2,0.15 -0.27,0.27 -0.07,0.12 -0.1,0.26 -0.1,0.41 0,0.16 0.03,0.3 0.1,0.42 0.07,0.11 0.15,0.21 0.27,0.27 0.11,0.06 0.23,0.09 0.37,0.09 0.22,0 0.4,-0.07 0.53,-0.21zm0.19 -1.68c0.19,0.1 0.34,0.25 0.45,0.45 0.11,0.19 0.17,0.41 0.17,0.66 0,0.26 -0.06,0.48 -0.17,0.67 -0.11,0.2 -0.26,0.35 -0.45,0.46 -0.19,0.1 -0.41,0.15 -0.65,0.15 -0.34,0 -0.6,-0.11 -0.8,-0.33l0 1.21 -0.58 0 0 -3.4 0.55 0 0 0.32c0.1,-0.11 0.22,-0.2 0.36,-0.26 0.14,-0.06 0.3,-0.09 0.47,-0.09 0.24,0 0.46,0.05 0.65,0.16z"/>
  <path fill="#000033" fill-rule="nonzero" d="M168.05 8.1c-0.04,0.19 -0.1,0.32 -0.19,0.41l1.23 0 0 -1.51 -0.96 0 -0.01 0.4c-0.01,0.29 -0.04,0.52 -0.07,0.7zm1.99 0.41l0 1.05 -0.54 0 0 -0.56 -1.93 0 0 0.56 -0.54 0 0 -1.05 0.12 0c0.16,-0.01 0.26,-0.11 0.32,-0.31 0.06,-0.2 0.1,-0.48 0.12,-0.84l0.03 -0.85 2.06 0 0 2 0.36 0z"/>
  <path fill="#000033" fill-rule="nonzero" d="M172.29 8.4c0.13,-0.11 0.2,-0.26 0.23,-0.45l-1.41 0c0.02,0.19 0.1,0.33 0.22,0.44 0.13,0.12 0.29,0.17 0.48,0.17 0.19,0 0.35,-0.05 0.48,-0.16zm0.16 -1.76c0.21,0.11 0.37,0.26 0.48,0.45 0.11,0.2 0.17,0.42 0.17,0.66 0,0.25 -0.05,0.47 -0.17,0.66 -0.11,0.2 -0.26,0.35 -0.46,0.46 -0.19,0.11 -0.41,0.16 -0.66,0.16 -0.24,0 -0.46,-0.05 -0.65,-0.16 -0.19,-0.11 -0.34,-0.26 -0.45,-0.45 -0.11,-0.2 -0.16,-0.43 -0.16,-0.68 0,-0.04 0,-0.1 0.01,-0.17l1.96 0c-0.04,-0.19 -0.13,-0.33 -0.27,-0.44 -0.15,-0.11 -0.33,-0.16 -0.54,-0.16 -0.27,0 -0.5,0.09 -0.68,0.27l-0.31 -0.36c0.11,-0.13 0.25,-0.23 0.42,-0.3 0.17,-0.07 0.37,-0.11 0.58,-0.11 0.28,0 0.52,0.06 0.73,0.17z"/>
  <path fill="#000033" fill-rule="nonzero" d="M175.07 9.02l0 0.89 -0.59 0 0 -0.89 -1.07 -2.51 0.6 0 0.78 1.85 0.8 -1.85 0.56 0 -1.08 2.51z"/>
  <path fill="#000033" fill-rule="nonzero" d="M178.89 6.51l0 2.49 -0.58 0 0 -2 -0.93 0 -0.03 0.5c-0.01,0.33 -0.04,0.6 -0.09,0.83 -0.04,0.22 -0.12,0.4 -0.23,0.52 -0.1,0.13 -0.25,0.2 -0.44,0.2 -0.09,0 -0.19,-0.02 -0.32,-0.05l0.03 -0.49c0.04,0.01 0.08,0.01 0.11,0.01 0.12,0 0.21,-0.05 0.26,-0.14 0.06,-0.1 0.1,-0.21 0.12,-0.34 0.02,-0.13 0.03,-0.32 0.04,-0.57l0.05 -0.96 2.01 0z"/>
  <path fill="#000033" fill-rule="nonzero" d="M181.41 8.4c0.12,-0.11 0.2,-0.26 0.23,-0.45l-1.41 0c0.02,0.19 0.1,0.33 0.22,0.44 0.13,0.12 0.29,0.17 0.48,0.17 0.19,0 0.35,-0.05 0.48,-0.16zm0.16 -1.76c0.2,0.11 0.37,0.26 0.48,0.45 0.11,0.2 0.17,0.42 0.17,0.66 0,0.25 -0.06,0.47 -0.17,0.66 -0.11,0.2 -0.26,0.35 -0.46,0.46 -0.19,0.11 -0.41,0.16 -0.66,0.16 -0.24,0 -0.46,-0.05 -0.65,-0.16 -0.19,-0.11 -0.34,-0.26 -0.45,-0.45 -0.11,-0.2 -0.16,-0.43 -0.16,-0.68 0,-0.04 0,-0.1 0.01,-0.17l1.96 0c-0.04,-0.19 -0.13,-0.33 -0.27,-0.44 -0.15,-0.11 -0.33,-0.16 -0.54,-0.16 -0.28,0 -0.5,0.09 -0.68,0.27l-0.31 -0.36c0.11,-0.13 0.25,-0.23 0.42,-0.3 0.17,-0.07 0.37,-0.11 0.58,-0.11 0.28,0 0.52,0.06 0.73,0.17z"/>
  <path fill="#000033" fill-rule="nonzero" d="M184.96 7l-0.87 0 0 2 -0.59 0 0 -2 -0.88 0 0 -0.49 2.34 0 0 0.49z"/>
  <path fill="#000033" fill-rule="nonzero" d="M133.76 13.09c-0.04,0.18 -0.1,0.31 -0.19,0.4l1.23 0 0 -1.51 -0.96 0 -0.01 0.41c-0.01,0.28 -0.04,0.52 -0.07,0.7zm1.99 0.4l0 1.05 -0.54 0 0 -0.56 -1.93 0 0 0.56 -0.54 0 0 -1.05 0.12 0c0.16,-0.01 0.26,-0.11 0.32,-0.31 0.06,-0.19 0.1,-0.47 0.12,-0.83l0.03 -0.86 2.05 0 0 2 0.37 0z"/>
  <path fill="#000033" fill-rule="nonzero" d="M138.33 13.3c0.14,-0.14 0.21,-0.33 0.21,-0.56 0,-0.24 -0.07,-0.42 -0.21,-0.57 -0.14,-0.14 -0.31,-0.21 -0.53,-0.21 -0.14,0 -0.27,0.03 -0.38,0.09 -0.11,0.07 -0.2,0.16 -0.26,0.28 -0.07,0.11 -0.1,0.25 -0.1,0.41 0,0.15 0.03,0.29 0.1,0.41 0.06,0.12 0.15,0.21 0.26,0.27 0.11,0.06 0.24,0.1 0.38,0.1 0.22,0 0.39,-0.08 0.53,-0.22zm0.19 -1.68c0.19,0.11 0.34,0.26 0.45,0.45 0.11,0.19 0.16,0.41 0.16,0.67 0,0.25 -0.05,0.47 -0.16,0.67 -0.11,0.19 -0.26,0.34 -0.45,0.45 -0.19,0.1 -0.41,0.16 -0.65,0.16 -0.34,0 -0.61,-0.12 -0.8,-0.34l0 1.21 -0.59 0 0 -3.4 0.56 0 0 0.33c0.1,-0.12 0.21,-0.21 0.36,-0.27 0.14,-0.06 0.29,-0.09 0.47,-0.09 0.24,0 0.46,0.05 0.65,0.16z"/>
  <path fill="#000033" fill-rule="nonzero" d="M141.13 13.49c0.12,-0.07 0.2,-0.16 0.25,-0.29l0 -0.29 -0.61 0c-0.33,0 -0.5,0.12 -0.5,0.34 0,0.1 0.04,0.19 0.13,0.25 0.08,0.06 0.2,0.09 0.35,0.09 0.14,0 0.27,-0.03 0.38,-0.1zm0.54 -1.76c0.19,0.17 0.29,0.44 0.29,0.79l0 1.46 -0.55 0 0 -0.3c-0.07,0.11 -0.18,0.19 -0.31,0.25 -0.13,0.06 -0.29,0.09 -0.48,0.09 -0.18,0 -0.35,-0.04 -0.49,-0.1 -0.14,-0.06 -0.24,-0.15 -0.32,-0.27 -0.08,-0.11 -0.12,-0.24 -0.12,-0.38 0,-0.23 0.09,-0.41 0.25,-0.54 0.17,-0.14 0.43,-0.2 0.79,-0.2l0.65 0 0 -0.04c0,-0.18 -0.06,-0.31 -0.16,-0.4 -0.11,-0.1 -0.26,-0.14 -0.47,-0.14 -0.14,0 -0.27,0.02 -0.41,0.06 -0.13,0.05 -0.25,0.11 -0.34,0.19l-0.23 -0.43c0.13,-0.1 0.29,-0.18 0.47,-0.23 0.18,-0.05 0.38,-0.08 0.58,-0.08 0.37,0 0.65,0.09 0.85,0.27z"/>
  <path fill="#000033" fill-rule="nonzero" d="M145.3 13.98l0 -1.65 -0.84 1.39 -0.25 0 -0.83 -1.39 0 1.65 -0.53 0 0 -2.49 0.61 0 0.89 1.56 0.93 -1.56 0.55 0 0 2.49 -0.53 0z"/>
  <path fill="#000033" fill-rule="nonzero" d="M148.03 13.49c0.11,-0.07 0.19,-0.16 0.24,-0.29l0 -0.29 -0.61 0c-0.33,0 -0.5,0.12 -0.5,0.34 0,0.1 0.04,0.19 0.13,0.25 0.08,0.06 0.2,0.09 0.35,0.09 0.14,0 0.27,-0.03 0.39,-0.1zm0.53 -1.76c0.19,0.17 0.29,0.44 0.29,0.79l0 1.46 -0.55 0 0 -0.3c-0.07,0.11 -0.17,0.19 -0.31,0.25 -0.13,0.06 -0.29,0.09 -0.48,0.09 -0.18,0 -0.35,-0.04 -0.48,-0.1 -0.15,-0.06 -0.25,-0.15 -0.33,-0.27 -0.08,-0.11 -0.11,-0.24 -0.11,-0.38 0,-0.23 0.08,-0.41 0.25,-0.54 0.16,-0.14 0.42,-0.2 0.78,-0.2l0.65 0 0 -0.04c0,-0.18 -0.06,-0.31 -0.16,-0.4 -0.1,-0.1 -0.26,-0.14 -0.46,-0.14 -0.14,0 -0.28,0.02 -0.42,0.06 -0.13,0.05 -0.25,0.11 -0.34,0.19l-0.23 -0.43c0.13,-0.1 0.29,-0.18 0.47,-0.23 0.19,-0.05 0.38,-0.08 0.58,-0.08 0.37,0 0.65,0.09 0.85,0.27z"/>
  <path fill="#000033" fill-rule="nonzero" d="M153.03 11.98l-0.88 0 0 2 -0.58 0 0 -2 -0.88 0 0 -0.49 2.34 0 0 0.49z"/>
  <path fill="#000033" fill-rule="nonzero" d="M154.25 12.09c-0.13,0.12 -0.2,0.26 -0.23,0.45l1.41 0c-0.02,-0.18 -0.1,-0.33 -0.23,-0.44 -0.12,-0.12 -0.28,-0.17 -0.47,-0.17 -0.19,0 -0.35,0.05 -0.48,0.16zm1.73 0.83l-1.96 0c0.04,0.19 0.13,0.33 0.27,0.44 0.15,0.11 0.33,0.16 0.54,0.16 0.27,0 0.5,-0.09 0.68,-0.27l0.31 0.36c-0.11,0.13 -0.25,0.24 -0.42,0.3 -0.18,0.07 -0.37,0.11 -0.58,0.11 -0.28,0 -0.52,-0.06 -0.73,-0.17 -0.21,-0.11 -0.37,-0.26 -0.48,-0.45 -0.11,-0.2 -0.17,-0.42 -0.17,-0.66 0,-0.25 0.05,-0.46 0.16,-0.66 0.11,-0.19 0.27,-0.35 0.46,-0.45 0.2,-0.11 0.42,-0.17 0.67,-0.17 0.24,0 0.46,0.05 0.65,0.16 0.19,0.11 0.34,0.26 0.45,0.46 0.11,0.19 0.16,0.42 0.16,0.67 0,0.04 0,0.1 -0.01,0.17z"/>
  <path fill="#000033" fill-rule="nonzero" d="M158.02 13.49c0.11,-0.07 0.19,-0.16 0.24,-0.29l0 -0.29 -0.61 0c-0.33,0 -0.5,0.12 -0.5,0.34 0,0.1 0.04,0.19 0.13,0.25 0.08,0.06 0.2,0.09 0.35,0.09 0.14,0 0.27,-0.03 0.39,-0.1zm0.53 -1.76c0.19,0.17 0.29,0.44 0.29,0.79l0 1.46 -0.55 0 0 -0.3c-0.07,0.11 -0.17,0.19 -0.31,0.25 -0.13,0.06 -0.29,0.09 -0.47,0.09 -0.19,0 -0.36,-0.04 -0.49,-0.1 -0.15,-0.06 -0.25,-0.15 -0.33,-0.27 -0.08,-0.11 -0.11,-0.24 -0.11,-0.38 0,-0.23 0.08,-0.41 0.24,-0.54 0.17,-0.14 0.43,-0.2 0.79,-0.2l0.65 0 0 -0.04c0,-0.18 -0.06,-0.31 -0.16,-0.4 -0.1,-0.1 -0.26,-0.14 -0.46,-0.14 -0.14,0 -0.28,0.02 -0.42,0.06 -0.13,0.05 -0.25,0.11 -0.34,0.19l-0.23 -0.43c0.13,-0.1 0.29,-0.18 0.47,-0.23 0.19,-0.05 0.38,-0.08 0.59,-0.08 0.36,0 0.64,0.09 0.84,0.27z"/>
  <path fill="#000033" fill-rule="nonzero" d="M161.72 11.98l-0.88 0 0 2 -0.58 0 0 -2 -0.88 0 0 -0.49 2.34 0 0 0.49z"/>
  <path fill="#000033" fill-rule="nonzero" d="M164.17 13.3c0.14,-0.14 0.21,-0.33 0.21,-0.56 0,-0.24 -0.07,-0.42 -0.21,-0.57 -0.14,-0.14 -0.32,-0.21 -0.53,-0.21 -0.14,0 -0.27,0.03 -0.38,0.09 -0.11,0.07 -0.2,0.16 -0.27,0.28 -0.06,0.11 -0.09,0.25 -0.09,0.41 0,0.15 0.03,0.29 0.09,0.41 0.07,0.12 0.16,0.21 0.27,0.27 0.11,0.06 0.24,0.1 0.38,0.1 0.21,0 0.39,-0.08 0.53,-0.22zm0.18 -1.68c0.2,0.11 0.35,0.26 0.46,0.45 0.1,0.19 0.16,0.41 0.16,0.67 0,0.25 -0.06,0.47 -0.16,0.67 -0.11,0.19 -0.26,0.34 -0.46,0.45 -0.19,0.1 -0.4,0.16 -0.65,0.16 -0.33,0 -0.6,-0.12 -0.8,-0.34l0 1.21 -0.58 0 0 -3.4 0.56 0 0 0.33c0.09,-0.12 0.21,-0.21 0.35,-0.27 0.15,-0.06 0.3,-0.09 0.47,-0.09 0.25,0 0.46,0.05 0.65,0.16z"/>
  <path fill="#000033" fill-rule="nonzero" d="M168.25 11.49l0.58 0 0 2.49 -0.58 0 0 -2.49zm-1.05 1.96c0.09,-0.07 0.14,-0.18 0.14,-0.33 0,-0.14 -0.05,-0.24 -0.14,-0.3 -0.08,-0.07 -0.22,-0.1 -0.39,-0.11l-0.5 0 0 0.84 0.5 0.01c0.17,0 0.3,-0.03 0.39,-0.11zm0.47 -0.92c0.17,0.14 0.25,0.34 0.25,0.6 0,0.28 -0.09,0.49 -0.27,0.64 -0.19,0.15 -0.45,0.22 -0.79,0.22l-1.13 -0.01 0 -2.49 0.58 0 0 0.82 0.63 0c0.32,0 0.56,0.07 0.73,0.22z"/>
  <path fill="#0066FF" fill-rule="nonzero" d="M118.28 42.57l-14.07 0 6.3 -24.31 4.54 -17.51 14.07 0 -10.84 41.82z"/>
  <path fill="#000033" fill-rule="nonzero" d="M19.4 9.52c0,3.8 0.05,6.71 0.16,8.74l-6.08 0 0.07 -5.34c-1.79,1.23 -3.87,1.84 -6.23,1.84 -2.52,0 -4.32,-0.59 -5.4,-1.77 -1.09,-1.17 -1.63,-2.88 -1.63,-5.12l0 -1.88c0,-2.19 -0.05,-3.93 -0.13,-5.22l5.73 0c-0.1,2.37 -0.15,4.25 -0.15,5.65 0,0.82 0.12,1.49 0.36,1.98 0.23,0.5 0.62,0.87 1.18,1.12 0.56,0.24 1.33,0.36 2.33,0.36 1.63,0 2.95,-0.51 3.96,-1.52l0 -1.41c0,-2.88 -0.03,-4.94 -0.09,-6.18l6.08 0c-0.11,2.03 -0.16,4.94 -0.16,8.75z"/>
  <path fill="#000033" fill-rule="nonzero" d="M34.83 11.09l-2.47 -6.65 -2.48 6.65 4.95 0zm2.61 7.22c-0.31,-0.92 -0.72,-2.07 -1.23,-3.46l-7.71 0 -1.21 3.46 -6.06 0 6.76 -17.54 8.89 0 6.82 17.54 -6.26 0z"/>
  <path fill="#000033" fill-rule="nonzero" d="M65.43 18.31l-6.11 0 0 -12.8 -5.41 0 -0.03 1.4c0,1.22 -0.02,2.3 -0.08,3.22 -0.06,0.93 -0.17,1.87 -0.35,2.84 -0.32,1.76 -1.14,3.17 -2.45,4.23 -1.31,1.06 -3.15,1.59 -5.5,1.59l0 -4.71c0.63,-0.13 1.12,-0.41 1.49,-0.86 0.36,-0.44 0.64,-1.15 0.83,-2.13 0.15,-0.79 0.22,-2.59 0.22,-5.39l-0.03 -4.93 17.42 0.02 0 17.52z"/>
  <path fill="#000033" fill-rule="nonzero" d="M87.65 18.31l-6.11 0 0 -12.8 -5.41 0 -0.03 1.4c0,1.22 -0.03,2.3 -0.08,3.22 -0.06,0.93 -0.18,1.87 -0.35,2.84 -0.33,1.76 -1.14,3.17 -2.46,4.23 -1.31,1.06 -3.14,1.59 -5.49,1.59l0 -4.71c0.63,-0.13 1.12,-0.41 1.49,-0.86 0.36,-0.44 0.64,-1.15 0.83,-2.13 0.14,-0.79 0.22,-2.59 0.22,-5.39l-0.03 -4.93 17.42 0.02 0 17.52z"/>
  <path fill="#000033" fill-rule="nonzero" d="M116.16 13.09c0,2.4 0.02,4.14 0.05,5.22l-5.7 0 0.02 -2.73c0.04,-3 0.05,-5.31 0.05,-6.93 0,-1.55 -0.01,-3.74 -0.05,-6.57l-0.02 -1.33 5.7 0c-0.01,0.51 -0.02,0.89 -0.02,1.13l0 6.77c-0.02,0.96 -0.03,2.44 -0.03,4.44zm-16.42 0.41c1.12,0 1.97,-0.05 2.54,-0.15 0.58,-0.11 0.97,-0.29 1.2,-0.55 0.23,-0.26 0.34,-0.65 0.34,-1.18 0,-0.53 -0.12,-0.94 -0.36,-1.21 -0.25,-0.27 -0.65,-0.46 -1.22,-0.57 -0.58,-0.1 -1.41,-0.15 -2.5,-0.15l-3.34 0 0 3.81 3.34 0zm0.96 -8.48c2.21,0 3.94,0.28 5.2,0.84 1.25,0.55 2.13,1.32 2.63,2.31 0.5,1 0.75,2.2 0.75,3.62 0,2.06 -0.63,3.66 -1.89,4.79 -1.25,1.14 -3.48,1.71 -6.69,1.71l-10.24 0.02c0.13,-3.12 0.19,-6.05 0.19,-8.77 0,-2.72 -0.06,-5.64 -0.19,-8.77l5.94 0 0 4.25 4.3 0z"/>
 </g>
</svg>
